# This file uses centimeters as units for non-parametric coordinates.

v 0.466572 1.042883 -0.564513
v -0.466572 1.042883 -0.564513
v -0.541625 0.967830 -0.000081
v 0.541625 0.967830 -0.000081
v -0.466572 1.042883 0.564513
v 0.466572 1.042883 0.564513
v -0.548497 1.295689 0.170644
v -0.571653 1.322598 -0.000085
v -0.571645 1.322611 -0.000001
v -0.548497 1.295671 -0.170753
v -0.478607 1.231251 -0.579074
v 0.478607 1.231251 -0.579074
v 0.548497 1.295672 -0.170753
v 0.571653 1.322598 -0.000085
v 0.571645 1.322611 -0.000001
v 0.548497 1.295689 0.170644
v 0.478607 1.231251 0.579074
v -0.478607 1.231251 0.579074
v -0.207220 -0.000001 -1.667522
v -0.220242 0.506141 -1.540590
v 0.220242 0.506141 -1.540590
v 0.207220 -0.000001 -1.667522
v -0.334679 0.935227 -1.179116
v 0.334679 0.935227 -1.179116
v -0.530372 1.221933 -0.638134
v 0.530372 1.221933 -0.638134
v 0.634854 1.322611 -0.000001
v -0.634854 1.322611 -0.000001
v -0.530372 1.221933 0.638132
v 0.530372 1.221933 0.638132
v -0.334679 0.935228 1.179116
v 0.334679 0.935228 1.179116
v -0.220242 0.506142 1.540589
v 0.220242 0.506142 1.540589
v -0.207220 0.000000 1.667522
v 0.207220 0.000000 1.667522
v -0.221410 -0.000001 -1.437246
v -0.245460 0.363891 -1.107609
v -0.326721 0.634019 -0.799360
v -0.467657 0.874234 -0.456554
v -0.615030 1.241907 -0.000000
v -0.467657 0.874234 0.456553
v -0.326721 0.634020 0.799360
v -0.245460 0.363891 1.107609
v 0.326721 0.634020 -0.799360
v 0.245460 0.363891 -1.107609
v 0.467657 0.874234 -0.456554
v 0.615030 1.241907 -0.000001
v 0.467657 0.874234 0.456553
v 0.326721 0.634020 0.799360
v 0.245460 0.363891 1.107609
v 0.221410 0.000000 1.437246
v 1.658656 0.000000 0.000000
v 0.221410 -0.000001 -1.437246
v -1.658656 0.000000 -0.000000
v -0.221410 0.000000 1.437246
vt 0.500000 0.000000
vt 0.440206 0.011894
vt 0.389515 0.045765
vt 0.355644 0.096456
vt 0.343750 0.156250
vt 0.355644 0.216044
vt 0.389515 0.266735
vt 0.440206 0.300606
vt 0.500000 0.312500
vt 0.421875 0.312500
vt 0.437500 0.312500
vt 0.453125 0.312500
vt 0.468750 0.312500
vt 0.484375 0.312500
vt 0.500000 0.312500
vt 0.515625 0.312500
vt 0.531250 0.312500
vt 0.546875 0.312500
vt 0.421875 0.688440
vt 0.437500 0.688440
vt 0.453125 0.688440
vt 0.468750 0.688440
vt 0.484375 0.688440
vt 0.500000 0.688440
vt 0.515625 0.688440
vt 0.531250 0.688440
vt 0.546875 0.688440
vt 0.500000 0.687500
vt 0.440206 0.699394
vt 0.389515 0.733265
vt 0.355644 0.783956
vt 0.343750 0.843750
vt 0.355644 0.903544
vt 0.389515 0.954235
vt 0.440206 0.988106
vt 0.500000 1.000000
vt 0.250000 0.250000
vt 0.750000 0.250000
vt 0.375000 0.500000
vt 0.625000 0.500000
vt 0.457011 0.258279
vt 0.500000 0.290060
vt 0.457011 0.945778
vt 0.500000 0.977560
vt 0.453555 0.814410
vt 0.266686 0.500000
vt 0.314561 0.592125
vt 0.354879 0.660513
vt 0.395774 0.720723
vt 0.468767 0.501336
vt 0.531233 0.501336
vt 0.533372 0.466628
vt 0.533372 0.033372
vt 0.531233 -0.001336
vt 0.468767 -0.001336
vt 0.466628 0.033372
vt 0.466628 0.466628
vt 0.464588 0.720723
vt 0.475378 0.660513
vt 0.481502 0.592125
vt 0.483314 0.500000
vt 0.453650 0.814410
vt 0.733314 0.500000
vt 0.551183 0.795268
vt 0.604226 0.720723
vt 0.645113 0.660513
vt 0.685441 0.592125
vt 0.546350 0.814410
vt 0.516686 0.500000
vt 0.518498 0.592125
vt 0.524622 0.660513
vt 0.535412 0.720723
vt 0.457011 0.738208
vt 0.500000 0.708214
vt 0.425098 0.766836
vt 0.457011 0.738208
vt 0.396720 0.799192
vt 0.425098 0.766835
vt 0.353284 0.843369
vt 0.396720 0.799192
vt 0.396720 0.884751
vt 0.353284 0.843369
vt 0.425098 0.916639
vt 0.396720 0.884751
vt 0.457011 0.945778
vt 0.425098 0.916639
vt 0.457011 0.258279
vt 0.425098 0.229139
vt 0.425098 0.229139
vt 0.396720 0.197251
vt 0.396720 0.197251
vt 0.353284 0.155869
vt 0.353284 0.155869
vt 0.396720 0.111692
vt 0.396720 0.111692
vt 0.425099 0.079336
vt 0.425098 0.079336
vt 0.457011 0.050708
vt 0.457011 0.050708
vt 0.500000 0.020714
vt 0.375000 0.000000
vt 0.625000 0.000000
vt 0.375000 0.750000
vt 0.625000 0.750000
vt 0.375000 1.000000
vt 0.625000 1.000000
vt 0.875000 0.000000
vt 0.125000 0.000000
vt 0.249978 0.000000
vt 0.375000 0.874978
vt 0.625000 0.874978
vt 0.750022 0.000000
vt 0.249994 0.062921
vt 0.249978 0.062915
vt 0.280959 0.061950
vt 0.219011 0.061946
vt 0.249978 0.062915
vt 0.125000 0.029272
vt 0.219011 0.061946
vt 0.585152 0.720728
vt 0.375000 0.720728
vt 0.780989 0.061946
vt 0.875000 0.029272
vt 0.750022 0.062915
vt 0.780989 0.061946
vt 0.719041 0.061950
vt 0.750022 0.062915
vt 0.750006 0.062921
vt 0.625000 0.029272
vt 0.719041 0.061950
vt 0.375000 0.029272
vt 0.625000 0.029272
vt 0.280959 0.061950
vt 0.375000 0.029272
vt 0.480194 0.667742
vt 0.470196 0.666667
vt 0.470196 0.330690
vt 0.480194 0.329791
vt 0.484373 0.331209
vt 0.484375 0.331215
vt 0.484375 0.669725
vt 0.484373 0.669723
vt 0.484375 0.669725
vt 0.484375 0.331215
vt 0.488553 0.329796
vt 0.498554 0.330690
vt 0.498554 0.666667
vt 0.488553 0.667736
vn 0.000000 0.991275 0.131811
vn 0.000000 0.991275 0.131811
vn 0.000000 0.999019 0.044293
vn 0.000000 0.999020 -0.044255
vn 0.000000 0.991280 -0.131774
vn 0.000000 0.991280 -0.131774
vn 0.996430 0.084340 0.003781
vn 0.989567 0.083758 -0.117226
vn 0.995756 0.089148 -0.022869
vn 0.986455 0.084742 -0.140444
vn 0.986450 0.084744 0.140483
vn 0.984973 0.085243 0.150206
vn 0.984788 0.075034 0.156722
vn -0.000000 0.077073 0.997025
vn -0.000000 0.077073 0.997025
vn -0.000000 0.077073 0.997025
vn 0.000000 0.077073 0.997025
vn -0.984788 0.075035 0.156722
vn -0.984973 0.085243 0.150206
vn -0.986450 0.084744 0.140483
vn -0.995765 0.089149 -0.022467
vn -0.996426 0.084339 0.004783
vn -0.989683 0.083768 -0.116231
vn -0.986455 0.084743 -0.140445
vn -0.984979 0.085241 -0.150165
vn -0.984795 0.075032 -0.156679
vn 0.000000 0.077073 -0.997026
vn 0.000000 0.077073 -0.997025
vn 0.000000 0.077073 -0.997025
vn 0.000000 0.077073 -0.997025
vn 0.984795 0.075032 -0.156679
vn 0.984979 0.085241 -0.150165
vn -0.613294 -0.471316 -0.633823
vn 0.000000 0.385724 -0.922614
vn 0.368800 -0.563055 -0.739564
vn 0.000000 0.522520 -0.852627
vn 0.000000 0.736018 -0.676962
vn 0.000000 0.817105 -0.576490
vn 0.000000 0.958663 -0.284543
vn 0.000002 0.975444 -0.220249
vn 0.000000 1.000000 -0.000621
vn -0.000001 0.999510 0.031291
vn 0.000003 0.987717 -0.156251
vn 0.000006 0.987782 -0.155842
vn -0.000000 0.987782 -0.155841
vn 0.000001 0.987782 -0.155840
vn 0.000000 0.998612 -0.052679
vn 0.000001 0.987782 -0.155841
vn 0.000000 1.000000 -0.000482
vn 0.000000 0.987707 -0.156317
vn 0.000000 0.987782 0.155841
vn 0.000000 0.971664 0.236366
vn 0.000000 0.987782 0.155842
vn -0.000000 0.958663 0.284543
vn -0.000000 0.987782 0.155841
vn 0.000001 0.987782 0.155842
vn 0.000000 0.817105 0.576489
vn 0.000000 0.736018 0.676962
vn 0.000000 0.522521 0.852627
vn 0.000000 0.385725 0.922614
vn -0.368800 -0.563055 0.739565
vn 0.613295 -0.471315 0.633823
vn -0.988764 -0.115087 -0.095399
vn -0.994938 -0.062687 -0.078543
vn -0.444524 -0.895348 -0.027391
vn -0.956574 -0.237802 -0.168571
vn -0.969155 -0.202573 -0.140364
vn -0.953888 -0.254861 -0.158565
vn -0.953888 -0.254861 -0.158564
vn -0.971131 -0.238546 0.000000
vn -0.971131 -0.238546 0.000000
vn -0.953888 -0.254861 0.158565
vn -0.953888 -0.254861 0.158565
vn -0.956574 -0.237802 0.168571
vn -0.969155 -0.202572 0.140364
vn -0.988764 -0.115087 0.095399
vn -0.994938 -0.062687 0.078543
vn 0.956574 -0.237803 -0.168571
vn 0.988764 -0.115087 -0.095399
vn 0.969155 -0.202573 -0.140364
vn 0.994938 -0.062687 -0.078543
vn 0.953888 -0.254861 -0.158565
vn 0.953889 -0.254861 -0.158565
vn 0.971131 -0.238546 0.000000
vn 0.971132 -0.238545 0.000000
vn 0.953888 -0.254861 0.158565
vn 0.953888 -0.254861 0.158565
vn 0.956574 -0.237802 0.168571
vn 0.969155 -0.202573 0.140364
vn 0.988764 -0.115087 0.095399
vn 0.994938 -0.062687 0.078543
vn 0.444524 -0.895348 0.027391
vn 0.607993 0.510577 0.607993
vn 0.607970 0.510763 0.607860
vn 0.607971 0.510674 0.607933
vn 0.607949 0.510777 0.607869
vn 0.607969 0.510851 0.607787
vn 0.607989 0.510919 0.607710
vn 0.607993 0.510577 -0.607993
vn 0.607971 0.510674 -0.607933
vn 0.607970 0.510763 -0.607860
vn 0.607949 0.510778 -0.607868
vn 0.607969 0.510851 -0.607787
vn 0.607989 0.510918 -0.607710
vn -0.607993 0.510577 0.607993
vn -0.607971 0.510674 0.607933
vn -0.607970 0.510763 0.607860
vn -0.607949 0.510777 0.607868
vn -0.607969 0.510851 0.607787
vn -0.607989 0.510918 0.607710
vn -0.000000 -1.000000 0.000000
vn -0.444524 -0.895348 0.027391
vn 0.000000 -1.000000 0.000000
vn 0.444524 -0.895348 -0.027391
vn -0.607993 0.510577 -0.607993
vn -0.607970 0.510762 -0.607860
vn -0.607971 0.510674 -0.607934
vn -0.607949 0.510777 -0.607869
vn -0.607969 0.510851 -0.607787
vn -0.607989 0.510918 -0.607710
g polySurface2
f 1/104/1 2/103/2 4/111/3
f 4/111/3 2/103/2 3/110/4
f 4/111/3 3/110/4 6/106/5
f 6/106/5 3/110/4 5/105/6
f 8/114/7 9/113/8 3/109/9
f 7/115/10 3/109/9 9/113/8
f 8/117/7 3/109/9 10/116/11
f 3/109/9 2/108/12 10/119/11
f 10/119/11 2/108/12 11/118/13
f 11/121/14 2/103/15 12/120/16
f 12/120/16 2/103/15 1/104/17
f 12/123/18 1/107/19 13/122/20
f 13/122/20 1/107/19 4/112/21
f 13/125/20 4/112/21 14/124/22
f 14/127/22 4/112/21 15/128/23
f 15/128/23 4/112/21 16/126/24
f 4/112/21 6/102/25 16/130/24
f 16/130/24 6/102/25 17/129/26
f 17/132/27 6/102/28 18/131/29
f 18/131/29 6/102/28 5/101/30
f 18/134/31 5/101/32 7/133/10
f 7/133/10 5/101/32 3/109/9
f 19/10/33 20/11/34 22/19/35
f 22/19/35 20/11/34 21/20/36
f 20/11/34 23/12/37 21/20/36
f 21/20/36 23/12/37 24/21/38
f 23/12/37 25/13/39 24/21/38
f 24/21/38 25/13/39 26/22/40
f 15/141/41 27/23/42 14/142/43
f 27/23/42 26/22/40 14/142/43
f 14/142/43 26/22/40 13/135/44
f 13/135/44 26/22/40 12/136/45
f 26/22/40 25/13/39 12/136/45
f 12/136/45 25/13/39 11/137/46
f 25/13/39 28/14/47 11/137/46
f 11/137/46 28/14/47 10/138/48
f 9/140/49 8/139/50 28/14/47
f 28/14/47 8/139/50 10/138/48
f 9/144/49 28/14/47 7/145/51
f 28/14/47 29/15/52 7/145/51
f 7/145/51 29/15/52 18/146/53
f 29/15/52 30/24/54 18/146/53
f 18/146/53 30/24/54 17/147/55
f 30/24/54 27/23/42 17/147/55
f 17/147/55 27/23/42 16/148/56
f 16/148/56 27/23/42 15/143/41
f 29/15/52 31/16/57 30/24/54
f 30/24/54 31/16/57 32/25/58
f 31/16/57 33/17/59 32/25/58
f 32/25/58 33/17/59 34/26/60
f 33/17/59 35/18/61 34/26/60
f 34/26/60 35/18/61 36/27/62
f 38/99/63 20/2/64 37/100/65
f 37/100/65 20/2/64 19/1/33
f 39/97/66 23/3/67 38/98/63
f 38/98/63 23/3/67 20/2/64
f 40/95/68 25/4/69 39/96/66
f 39/96/66 25/4/69 23/3/67
f 40/94/68 41/93/70 25/4/69
f 25/4/69 41/93/70 28/5/71
f 42/91/72 29/6/73 41/92/70
f 41/92/70 29/6/73 28/5/71
f 42/90/72 43/89/74 29/6/73
f 29/6/73 43/89/74 31/7/75
f 43/88/74 44/87/76 31/7/75
f 31/7/75 44/87/76 33/8/77
f 45/86/78 46/85/79 24/34/80
f 24/34/80 46/85/79 21/35/81
f 47/84/82 45/83/78 26/33/83
f 26/33/83 45/83/78 24/34/80
f 47/81/82 26/33/83 48/82/84
f 48/82/84 26/33/83 27/32/85
f 49/80/86 48/79/84 30/31/87
f 30/31/87 48/79/84 27/32/85
f 49/77/86 30/31/87 50/78/88
f 50/78/88 30/31/87 32/30/89
f 50/75/88 32/30/89 51/76/90
f 51/76/90 32/30/89 34/29/91
f 51/73/90 34/29/91 52/74/92
f 52/74/92 34/29/91 36/28/62
f 52/69/93 53/40/94 51/70/95
f 51/70/95 53/40/94 50/71/96
f 50/71/96 53/40/94 49/72/97
f 49/72/97 53/40/94 48/68/98
f 54/63/99 46/67/100 53/40/101
f 46/67/100 45/66/102 53/40/101
f 45/66/102 47/65/103 53/40/101
f 47/65/103 48/64/104 53/40/101
f 56/61/105 44/60/106 55/39/107
f 44/60/106 43/59/108 55/39/107
f 43/59/108 42/58/109 55/39/107
f 41/62/110 55/39/107 42/58/109
f 55/37/111 37/56/65 56/57/112
f 53/38/113 52/52/92 54/53/114
f 19/55/33 22/54/35 37/56/65
f 22/54/35 54/53/114 37/56/65
f 37/56/65 54/53/114 56/57/112
f 36/51/62 35/50/61 52/52/92
f 35/50/61 56/57/112 52/52/92
f 56/57/112 54/53/114 52/52/92
f 37/46/115 55/39/116 38/47/117
f 38/47/117 55/39/116 39/48/118
f 39/48/118 55/39/116 40/49/119
f 40/49/119 55/39/116 41/45/120
f 22/36/35 21/35/81 54/44/114
f 54/44/114 21/35/81 46/43/79
f 35/9/61 33/8/77 56/42/112
f 56/42/112 33/8/77 44/41/76
v -0.508205 1.136908 0.613741
v 0.508205 1.136908 0.613741
v -0.508205 1.232017 0.623204
v 0.508205 1.232017 0.623204
v -0.508205 1.293306 0.007258
v 0.508205 1.293306 0.007258
v -0.508205 1.198196 -0.002206
v 0.508205 1.198196 -0.002206
vt 0.375000 0.000000
vt 0.625000 0.000000
vt 0.375000 0.250000
vt 0.625000 0.250000
vt 0.375000 0.500000
vt 0.625000 0.500000
vt 0.375000 0.750000
vt 0.625000 0.750000
vt 0.375000 1.000000
vt 0.625000 1.000000
vt 0.875000 0.000000
vt 0.875000 0.250000
vt 0.125000 0.000000
vt 0.125000 0.250000
vn 0.000000 -0.099014 0.995086
vn 0.000000 -0.099014 0.995086
vn 0.000000 -0.099014 0.995086
vn 0.000000 -0.099014 0.995086
vn 0.000000 0.995086 0.099014
vn 0.000000 0.995086 0.099014
vn 0.000000 0.995086 0.099014
vn 0.000000 0.995086 0.099014
vn 0.000000 0.099014 -0.995086
vn 0.000000 0.099014 -0.995086
vn 0.000000 0.099014 -0.995086
vn 0.000000 0.099014 -0.995086
vn 0.000000 -0.995086 -0.099014
vn 0.000000 -0.995086 -0.099014
vn 0.000000 -0.995086 -0.099014
vn 0.000000 -0.995086 -0.099014
vn 1.000000 0.000000 0.000000
vn 1.000000 0.000000 0.000000
vn 1.000000 0.000000 0.000000
vn 1.000000 0.000000 0.000000
vn -1.000000 0.000000 0.000000
vn -1.000000 0.000000 0.000000
vn -1.000000 0.000000 0.000000
vn -1.000000 0.000000 0.000000
g pCube2 pCube3
f 57/149/121 58/150/122 59/151/123
f 59/151/123 58/150/122 60/152/124
f 59/151/125 60/152/126 61/153/127
f 61/153/127 60/152/126 62/154/128
f 61/153/129 62/154/130 63/155/131
f 63/155/131 62/154/130 64/156/132
f 63/155/133 64/156/134 57/157/135
f 57/157/135 64/156/134 58/158/136
f 58/150/137 64/159/138 60/152/139
f 60/152/139 64/159/138 62/160/140
f 63/161/141 57/149/142 61/162/143
f 61/162/143 57/149/142 59/151/144
v -0.508205 1.237754 -0.618855
v 0.508205 1.237754 -0.618855
v -0.508205 1.142177 -0.609847
v 0.508205 1.142177 -0.609847
v -0.508205 1.200257 0.006411
v 0.508205 1.200257 0.006411
v -0.508205 1.295833 -0.002597
v 0.508205 1.295833 -0.002597
vt 0.375000 0.000000
vt 0.625000 0.000000
vt 0.375000 0.250000
vt 0.625000 0.250000
vt 0.375000 0.500000
vt 0.625000 0.500000
vt 0.375000 0.750000
vt 0.625000 0.750000
vt 0.375000 1.000000
vt 0.625000 1.000000
vt 0.875000 0.000000
vt 0.875000 0.250000
vt 0.125000 0.000000
vt 0.125000 0.250000
vn 0.000000 -0.093829 -0.995588
vn 0.000000 -0.093829 -0.995588
vn 0.000000 -0.093829 -0.995588
vn 0.000000 -0.093829 -0.995588
vn 0.000000 -0.995588 0.093829
vn 0.000000 -0.995588 0.093829
vn 0.000000 -0.995588 0.093829
vn 0.000000 -0.995588 0.093829
vn 0.000000 0.093829 0.995588
vn 0.000000 0.093829 0.995588
vn 0.000000 0.093829 0.995588
vn 0.000000 0.093829 0.995588
vn 0.000000 0.995588 -0.093829
vn 0.000000 0.995588 -0.093829
vn 0.000000 0.995588 -0.093829
vn 0.000000 0.995588 -0.093829
vn 1.000000 -0.000000 0.000000
vn 1.000000 -0.000000 0.000000
vn 1.000000 -0.000000 0.000000
vn 1.000000 -0.000000 0.000000
vn -1.000000 0.000000 0.000000
vn -1.000000 0.000000 0.000000
vn -1.000000 0.000000 0.000000
vn -1.000000 0.000000 0.000000
f 65/163/145 66/164/146 67/165/147
f 67/165/147 66/164/146 68/166/148
f 67/165/149 68/166/150 69/167/151
f 69/167/151 68/166/150 70/168/152
f 69/167/153 70/168/154 71/169/155
f 71/169/155 70/168/154 72/170/156
f 71/169/157 72/170/158 65/171/159
f 65/171/159 72/170/158 66/172/160
f 66/164/161 72/173/162 68/166/163
f 68/166/163 72/173/162 70/174/164
f 71/175/165 65/163/166 69/176/167
f 69/176/167 65/163/166 67/165/168
